<svg xmlns="http://www.w3.org/2000/svg" viewBox="0 0 800 600"><defs><style>.\37 adf465c-3d39-4e55-b15d-ad19a29e6e1a{isolation:isolate;}.\33 bdbd394-3811-44f3-9632-f98dce29a1a2,.\38 18d73c1-dcc2-43cb-8310-0e1c99f99dc7{fill:#16a085;}.\38 18d73c1-dcc2-43cb-8310-0e1c99f99dc7{opacity:0.2;mix-blend-mode:multiply;}.\35 b5eb1db-c69f-4895-9ceb-7a195d56b128{fill:#fff;}</style></defs><title>logotipo</title><g class="7adf465c-3d39-4e55-b15d-ad19a29e6e1a"><g id="53f67db7-f650-4abe-aa7c-7ca6672648a4" data-name="green sea"><path class="3bdbd394-3811-44f3-9632-f98dce29a1a2" d="M599.31,381.93A81.74,81.74,0,0,1,572,377.25,123,123,0,0,1,400,396.4a123,123,0,0,1-172-19.16A82,82,0,0,1,118.7,300v0A82,82,0,0,0,228,377.32a123,123,0,0,0,172,19.16,123,123,0,0,0,172-19.16A82,82,0,0,0,681.31,300v0A82,82,0,0,1,599.31,381.93Z"/><path class="3bdbd394-3811-44f3-9632-f98dce29a1a2" d="M599.31,218A81.74,81.74,0,0,0,572,222.68a123,123,0,0,0-172-19.16,123,123,0,0,0-172,19.16A82,82,0,0,0,118.72,299H681.28A82,82,0,0,0,599.31,218Z"/><path class="818d73c1-dcc2-43cb-8310-0e1c99f99dc7" d="M681.31,299.93c0-.31,0-.62,0-.93h0c0,.32,0,.64,0,1Z"/><path class="818d73c1-dcc2-43cb-8310-0e1c99f99dc7" d="M118.72,299c0,.31,0,.62,0,.93v0c0-.32,0-.64,0-1Z"/><path class="3bdbd394-3811-44f3-9632-f98dce29a1a2" d="M200.69,381.93A81.74,81.74,0,0,0,228,377.25,123,123,0,0,0,400,396.4a123,123,0,0,0,172-19.16A82,82,0,0,0,681.3,300c0-.32,0-.64,0-1H118.72c0,.32,0,.64,0,1A82,82,0,0,0,200.69,381.93Z"/><path class="818d73c1-dcc2-43cb-8310-0e1c99f99dc7" d="M200.69,381.93A81.74,81.74,0,0,0,228,377.25,123,123,0,0,0,400,396.4a123,123,0,0,0,172-19.16A82,82,0,0,0,681.3,300c0-.32,0-.64,0-1H118.72c0,.32,0,.64,0,1A82,82,0,0,0,200.69,381.93Z"/><path class="5b5eb1db-c69f-4895-9ceb-7a195d56b128" d="M211.5,375.5v-151h9v106h368v9h-351v36h-9v-36h-8v36Zm26-151v89h351v9h-360v-98Z"/><path class="5b5eb1db-c69f-4895-9ceb-7a195d56b128" d="M309.7,256.36a24.33,24.33,0,0,0-8.23-6.49,23.77,23.77,0,0,0-10.64-2.42,24.08,24.08,0,0,0-9.4,1.85,24.39,24.39,0,0,0-7.7,5.06,23.83,23.83,0,0,0-5.17,7.47,22.86,22.86,0,0,0,0,18.19,23.36,23.36,0,0,0,5.17,7.43,24.7,24.7,0,0,0,7.7,5,24.06,24.06,0,0,0,9.4,1.85,23.75,23.75,0,0,0,10.64-2.42,24.32,24.32,0,0,0,8.23-6.49l3.47,2.72h.08a28.78,28.78,0,0,1-9.74,7.92,28.77,28.77,0,0,1-23.77.72,28.9,28.9,0,0,1-15.25-15,27,27,0,0,1,0-21.66A28.68,28.68,0,0,1,290.83,243a28.44,28.44,0,0,1,22.42,10.64l-.08.08Zm-18.87-.45a15.77,15.77,0,0,0-10.94,4.38,14.89,14.89,0,0,0-3.32,4.79,14.42,14.42,0,0,0-1.21,5.85,14.15,14.15,0,0,0,1.21,5.81,15,15,0,0,0,3.32,4.75,15.76,15.76,0,0,0,10.94,4.38,15.2,15.2,0,0,0,6.83-1.55,15.71,15.71,0,0,0,5.25-4.11l3.55,2.72a19.93,19.93,0,0,1-15.62,7.4,20.1,20.1,0,0,1-14.11-5.66,19.28,19.28,0,0,1-4.26-6.19,19.17,19.17,0,0,1,0-15.09,19.31,19.31,0,0,1,4.26-6.19,20.64,20.64,0,0,1,6.34-4.19,20.08,20.08,0,0,1,23.4,5.85l-3.55,2.79a16.21,16.21,0,0,0-5.28-4.19A15,15,0,0,0,290.83,255.91Z"/><path class="5b5eb1db-c69f-4895-9ceb-7a195d56b128" d="M318.91,243.53H356V248h-32.6v17.66h4V252H356v4.45H331.81v9.21h10.26v4.45H318.91V243.53Zm12.91,42.26H356v4.45H318.91V274.17h23.17v4.45H331.81Zm-12.91,8.6H356v4.45H318.91Zm8.45-15.77h-4v7.17h4Z"/><path class="5b5eb1db-c69f-4895-9ceb-7a195d56b128" d="M396.72,285.87v4.45H362.53V243.53H367v42.34h4.23V243.53h4.45v42.34Zm-34.19,8.53h34.19v4.45H362.53Z"/><path class="5b5eb1db-c69f-4895-9ceb-7a195d56b128" d="M403.21,243.53h37.06V248h-32.6v17.66h4V252h28.6v4.45H416.11v9.21h10.26v4.45H403.21V243.53Zm12.91,42.26h24.15v4.45H403.21V274.17h23.17v4.45H416.11Zm-12.91,8.6h37.06v4.45H403.21Zm8.45-15.77h-4v7.17h4Z"/><path class="5b5eb1db-c69f-4895-9ceb-7a195d56b128" d="M485.24,267.45a17.66,17.66,0,0,1,4.79,6,17.77,17.77,0,0,1,.38,14.64,17.53,17.53,0,0,1-9.4,9.4,17.18,17.18,0,0,1-6.87,1.4H446.83V272.13h27.32a8.59,8.59,0,0,1,3.51.72,9.42,9.42,0,0,1,4.83,4.83,8.95,8.95,0,0,1,0,7,9.43,9.43,0,0,1-4.83,4.83,8.58,8.58,0,0,1-3.51.72H455.28V276.59h-4V294.4h22.87a13.08,13.08,0,0,0,5.13-1,12.72,12.72,0,0,0,4.19-2.83,14,14,0,0,0,2.83-4.23,13,13,0,0,0,0-10.26,14,14,0,0,0-2.83-4.23,13.23,13.23,0,0,0-4.19-2.87,12.68,12.68,0,0,0-5.13-1.06H446.83V243.53h23.62a16.24,16.24,0,0,1,6.42,1.28,16.5,16.5,0,0,1,8.83,8.83,16.24,16.24,0,0,1,1.28,6.42A17,17,0,0,1,485.24,267.45Zm-34-4h4v-11.4h15.17a7.46,7.46,0,0,1,3.09.65,8.13,8.13,0,0,1,4.19,4.22,7.59,7.59,0,0,1,.64,3.11,7.83,7.83,0,0,1-.91,3.8,11,11,0,0,1,2,.49q1,.34,2,.72a12,12,0,0,0,1.06-5,11.7,11.7,0,0,0-.94-4.68,12.26,12.26,0,0,0-6.45-6.45,11.7,11.7,0,0,0-4.68-.94H451.28Zm20.15,0a3.55,3.55,0,0,0,1.81-1.32,3.48,3.48,0,0,0,.68-2.08,3.43,3.43,0,0,0-1-2.53,3.34,3.34,0,0,0-2.45-1H459.73v6.94h11.7Zm-11.7,22.34h14.42a4.49,4.49,0,0,0,3.25-1.32,4.65,4.65,0,0,0,0-6.57,4.5,4.5,0,0,0-3.25-1.32H459.73Z"/><path class="5b5eb1db-c69f-4895-9ceb-7a195d56b128" d="M521.62,265.26a52.07,52.07,0,0,1,6.6,3,22.74,22.74,0,0,1,5.09,3.7,15.1,15.1,0,0,1,3.28,4.75,15.46,15.46,0,0,1,1.17,6.23,13.9,13.9,0,0,1-6.11,11.92q-5.51,4-14.41,4a31,31,0,0,1-8.23-1,25,25,0,0,1-6.15-2.53,20.32,20.32,0,0,1-4.34-3.36,25.27,25.27,0,0,1-2.79-3.4l3.7-2.42a15,15,0,0,0,4.08,4.34A20.19,20.19,0,0,0,508.3,293a21.63,21.63,0,0,0,4.79,1.13,37.26,37.26,0,0,0,4.15.26,26.05,26.05,0,0,0,6.64-.79,15.46,15.46,0,0,0,5.21-2.38,9.79,9.79,0,0,0,4.23-8.32,12.15,12.15,0,0,0-.68-4.2,9.87,9.87,0,0,0-2.26-3.48,18.47,18.47,0,0,0-4.11-3.06A47.84,47.84,0,0,0,520,269.3l-3.7-1.44q-2-.76-3.66-1.55a13,13,0,0,1-3-1.93,8.53,8.53,0,0,1-2.08-2.61,7.8,7.8,0,0,1-.75-3.59,6.67,6.67,0,0,1,2.6-5.48,10.75,10.75,0,0,1,6.91-2.08,14.39,14.39,0,0,1,6.45,1.27,11.49,11.49,0,0,1,4.42,4.17l-3.7,2.42a6.59,6.59,0,0,0-2.75-2.57,9.89,9.89,0,0,0-4.34-.83,8.3,8.3,0,0,0-2.64.34,4.31,4.31,0,0,0-1.55.87,2.7,2.7,0,0,0-.94,2,4.4,4.4,0,0,0,.23,1.47,3,3,0,0,0,.94,1.25,11.05,11.05,0,0,0,2,1.28,35.07,35.07,0,0,0,3.51,1.51Zm-4.53,26.11a19.49,19.49,0,0,1-8.6-1.7,16.07,16.07,0,0,1-6.11-5.55l3.7-2.42a20.51,20.51,0,0,0,1.77,2.11,8.48,8.48,0,0,0,2.26,1.66,12.45,12.45,0,0,0,3,1.06,18.39,18.39,0,0,0,4,.38q.68,0,1.92-.11a12.36,12.36,0,0,0,2.49-.49,6.13,6.13,0,0,0,2.19-1.17,2.66,2.66,0,0,0,.94-2.15,4.08,4.08,0,0,0-.38-1.77,4.72,4.72,0,0,0-1.28-1.55,13.52,13.52,0,0,0-2.45-1.55,42.07,42.07,0,0,0-3.89-1.7L512.87,275a51.62,51.62,0,0,1-5.47-2.53,21.52,21.52,0,0,1-4.64-3.32,14,14,0,0,1-4.45-10.75,14,14,0,0,1,5-10.83,17.63,17.63,0,0,1,5.66-3.13,21.74,21.74,0,0,1,7.13-1.13q11.62,0,17.51,8.38L530,254.17q-4.53-6.41-13.89-6.42a17.47,17.47,0,0,0-5.4.79,13.43,13.43,0,0,0-4.23,2.19,9.83,9.83,0,0,0-2.76,3.36,9.48,9.48,0,0,0-1,4.3,11.88,11.88,0,0,0,.6,3.92,8.88,8.88,0,0,0,2,3.21,15.6,15.6,0,0,0,3.66,2.75,44.23,44.23,0,0,0,5.51,2.57l3.7,1.43q2.26.91,4.23,1.85a17.07,17.07,0,0,1,3.43,2.15,9.33,9.33,0,0,1,2.34,2.83,8.15,8.15,0,0,1,.87,3.89,7.67,7.67,0,0,1-.64,3,7.44,7.44,0,0,1-2,2.72,10.25,10.25,0,0,1-3.7,1.92A19.1,19.1,0,0,1,517.09,291.38Z"/></g></g></svg>